<svg width="15" height="17" color="currentColor" viewBox="0 0 15 17" fill="none" xmlns="http://www.w3.org/2000/svg">
<path d="M14.7795 3.11182L12.5303 0.862573C12.4607 0.792791 12.3781 0.73745 12.2871 0.699736C12.1961 0.662022 12.0985 0.64268 12 0.642823H3C2.90149 0.64268 2.80393 0.662022 2.71293 0.699736C2.62193 0.73745 2.53928 0.792791 2.46975 0.862573L0.220502 3.11182C0.150428 3.18133 0.0948528 3.26406 0.0570014 3.35521C0.01915 3.44636 -0.000224504 3.54412 1.96264e-06 3.64282V13.3928C1.96264e-06 14.2201 0.672752 14.8928 1.5 14.8928H13.5C14.3273 14.8928 15 14.2201 15 13.3928V3.64282C15.0002 3.54412 14.9809 3.44636 14.943 3.35521C14.9052 3.26406 14.8496 3.18133 14.7795 3.11182ZM3.3105 2.14282H11.6895L12.4395 2.89282H2.5605L3.3105 2.14282ZM1.5 13.3928V4.39282H13.5L13.5015 13.3928H1.5Z" fill="white"/>
<path d="M9 5.89282H6V8.14282H3.75L7.5 11.8928L11.25 8.14282H9V5.89282Z" fill="white"/>
</svg>
