<svg width="17" height="17" color="currentColor" viewBox="0 0 17 17" fill="none" xmlns="http://www.w3.org/2000/svg">
<path d="M0 2.23125C0 0.99875 0.99875 0 2.23125 0H13.0688C14.3013 0 15.3 0.99875 15.3 2.23125V7.6687C14.9685 7.4562 14.6124 7.27813 14.2375 7.14V2.23125C14.2375 1.92128 14.1144 1.624 13.8952 1.40482C13.676 1.18564 13.3787 1.0625 13.0688 1.0625H2.23125C1.92128 1.0625 1.624 1.18564 1.40482 1.40482C1.18564 1.624 1.0625 1.92128 1.0625 2.23125V13.0688C1.0625 13.3787 1.18564 13.676 1.40482 13.8952C1.624 14.1144 1.92128 14.2375 2.23125 14.2375H7.14C7.27813 14.6124 7.4562 14.9685 7.6687 15.3H2.23125C1.63949 15.3 1.07196 15.0649 0.653518 14.6465C0.235077 14.228 0 13.6605 0 13.0688V2.23125Z" fill="white"/>
<path d="M1.69995 6.58755C1.69995 6.08032 1.90145 5.59387 2.26011 5.23521C2.61877 4.87654 3.10523 4.67505 3.61245 4.67505C4.11968 4.67505 4.60613 4.87654 4.96479 5.23521C5.32346 5.59387 5.52495 6.08032 5.52495 6.58755C5.52495 7.09478 5.32346 7.58123 4.96479 7.93989C4.60613 8.29855 4.11968 8.50005 3.61245 8.50005C3.10523 8.50005 2.61877 8.29855 2.26011 7.93989C1.90145 7.58123 1.69995 7.09478 1.69995 6.58755ZM3.61245 5.73755C3.38702 5.73755 3.17082 5.8271 3.01141 5.98651C2.85201 6.14591 2.76245 6.36212 2.76245 6.58755C2.76245 6.81298 2.85201 7.02918 3.01141 7.18859C3.17082 7.348 3.38702 7.43755 3.61245 7.43755C3.83789 7.43755 4.05409 7.348 4.21349 7.18859C4.3729 7.02918 4.46245 6.81298 4.46245 6.58755C4.46245 6.36212 4.3729 6.14591 4.21349 5.98651C4.05409 5.8271 3.83789 5.73755 3.61245 5.73755Z" fill="white"/>
<path d="M3.61245 9.77515C3.10523 9.77515 2.61877 9.97664 2.26011 10.3353C1.90145 10.694 1.69995 11.1804 1.69995 11.6876C1.69995 12.1949 1.90145 12.6813 2.26011 13.04C2.61877 13.3987 3.10523 13.6001 3.61245 13.6001C4.11968 13.6001 4.60613 13.3987 4.96479 13.04C5.32346 12.6813 5.52495 12.1949 5.52495 11.6876C5.52495 11.1804 5.32346 10.694 4.96479 10.3353C4.60613 9.97664 4.11968 9.77515 3.61245 9.77515ZM2.76245 11.6876C2.76245 11.4622 2.85201 11.246 3.01141 11.0866C3.17082 10.9272 3.38702 10.8376 3.61245 10.8376C3.83789 10.8376 4.05409 10.9272 4.21349 11.0866C4.3729 11.246 4.46245 11.4622 4.46245 11.6876C4.46245 11.9131 4.3729 12.1293 4.21349 12.2887C4.05409 12.4481 3.83789 12.5376 3.61245 12.5376C3.38702 12.5376 3.17082 12.4481 3.01141 12.2887C2.85201 12.1293 2.76245 11.9131 2.76245 11.6876Z" fill="white"/>
<path d="M6.37549 6.05615C6.37549 5.7629 6.61349 5.5249 6.90674 5.5249H13.0688C13.1386 5.5249 13.2077 5.53864 13.2721 5.56534C13.3366 5.59204 13.3951 5.63117 13.4445 5.6805C13.4938 5.72983 13.5329 5.7884 13.5596 5.85285C13.5863 5.91731 13.6001 5.98639 13.6001 6.05615C13.6001 6.12592 13.5863 6.195 13.5596 6.25945C13.5329 6.32391 13.4938 6.38247 13.4445 6.4318C13.3951 6.48113 13.3366 6.52026 13.2721 6.54696C13.2077 6.57366 13.1386 6.5874 13.0688 6.5874H6.90674C6.61349 6.5874 6.37549 6.3494 6.37549 6.05615Z" fill="white"/>
<path d="M2.23682 2.16528C2.09592 2.16528 1.96079 2.22125 1.86117 2.32088C1.76154 2.42051 1.70557 2.55564 1.70557 2.69653C1.70557 2.83743 1.76154 2.97256 1.86117 3.07218C1.96079 3.17181 2.09592 3.22778 2.23682 3.22778H13.0603C13.2012 3.22778 13.3363 3.17181 13.4359 3.07218C13.5356 2.97256 13.5915 2.83743 13.5915 2.69653C13.5915 2.55564 13.5356 2.42051 13.4359 2.32088C13.3363 2.22125 13.2012 2.16528 13.0603 2.16528H2.23682Z" fill="white"/>
<path d="M17 12.3249C17 14.9068 14.9069 16.9999 12.325 16.9999C9.74315 16.9999 7.65002 14.9068 7.65002 12.3249C7.65002 9.74303 9.74315 7.6499 12.325 7.6499C14.9069 7.6499 17 9.74303 17 12.3249ZM12.75 9.3499C12.75 9.23719 12.7052 9.12908 12.6255 9.04938C12.5458 8.96968 12.4377 8.9249 12.325 8.9249C12.2123 8.9249 12.1042 8.96968 12.0245 9.04938C11.9448 9.12908 11.9 9.23719 11.9 9.3499V11.8999H9.35002C9.23731 11.8999 9.12921 11.9447 9.0495 12.0244C8.9698 12.1041 8.92502 12.2122 8.92502 12.3249C8.92502 12.4376 8.9698 12.5457 9.0495 12.6254C9.12921 12.7051 9.23731 12.7499 9.35002 12.7499H11.9V15.2999C11.9 15.4126 11.9448 15.5207 12.0245 15.6004C12.1042 15.6801 12.2123 15.7249 12.325 15.7249C12.4377 15.7249 12.5458 15.6801 12.6255 15.6004C12.7052 15.5207 12.75 15.4126 12.75 15.2999V12.7499H15.3C15.4127 12.7499 15.5208 12.7051 15.6005 12.6254C15.6802 12.5457 15.725 12.4376 15.725 12.3249C15.725 12.2122 15.6802 12.1041 15.6005 12.0244C15.5208 11.9447 15.4127 11.8999 15.3 11.8999H12.75V9.3499Z" fill="white"/>
</svg>
