<svg width="18" height="21" color="currentColor" viewBox="1 0 20 21" fill="none" xmlns="http://www.w3.org/2000/svg">
<path d="M8.33484 1.26764H11.6774V1.8582H12.8846V1.18497C12.8847 0.531601 12.3787 0 11.7568 0H8.25549C7.63354 0 7.12756 0.531601 7.12756 1.18497V1.8582H8.33484V1.26764Z" fill="#FFFBFB"/>
<path d="M15.6723 6.88037H4.33993C4.02941 6.88037 3.78497 7.15851 3.80999 7.48359L4.75741 19.7844C4.81021 20.4711 5.35571 21 6.01107 21H14.001C14.6564 21 15.2019 20.4711 15.2547 19.7843L16.2021 7.48359C16.2273 7.15851 15.9828 6.88037 15.6723 6.88037V6.88037ZM7.08392 19.688C7.07125 19.6888 7.05859 19.6893 7.04608 19.6893C6.72961 19.6893 6.46395 19.4305 6.44427 19.0944L5.85055 8.99604C5.8301 8.64661 6.08325 8.34588 6.41589 8.32441C6.74746 8.30326 7.03509 8.56842 7.05554 8.91801L7.6491 19.0163C7.6697 19.3658 7.41656 19.6664 7.08392 19.688V19.688ZM10.6165 19.0554C10.6165 19.4054 10.3462 19.6891 10.0128 19.6891C9.67944 19.6891 9.4092 19.4054 9.4092 19.0554V8.95695C9.4092 8.60687 9.67944 8.32313 10.0128 8.32313C10.3461 8.32313 10.6165 8.60687 10.6165 8.95695V19.0554ZM14.1617 8.99428L13.5948 19.0926C13.5761 19.4294 13.31 19.6891 12.9929 19.6891C12.981 19.6891 12.9689 19.6888 12.9569 19.6881C12.6241 19.6675 12.3702 19.3675 12.3899 19.0181L12.9566 8.91962C12.9761 8.57018 13.2608 8.30358 13.5945 8.32425C13.9273 8.34476 14.1812 8.64484 14.1617 8.99428V8.99428Z" fill="#FFFBFB"/>
<path d="M17.7597 4.92445L17.3633 3.67668C17.2587 3.34776 16.9655 3.12585 16.6351 3.12585H3.3769C3.0467 3.12585 2.75328 3.34776 2.64891 3.67668L2.25248 4.92445C2.17604 5.1651 2.27552 5.41055 2.46122 5.53296C2.53691 5.58279 2.62647 5.61275 2.72489 5.61275H17.2873C17.3857 5.61275 17.4754 5.58279 17.5509 5.5328C17.7366 5.41039 17.8361 5.16494 17.7597 4.92445Z" fill="#FFFBFB"/>
</svg>
