<svg width="20" height="16" viewBox="0 0 19 14" color="currentColor" fill="none" xmlns="http://www.w3.org/2000/svg">
<path d="M6.22758 9.75C6.22758 9.55109 6.30782 9.36032 6.45064 9.21967C6.59347 9.07902 6.78718 9 6.98916 9H11.5586C11.7606 9 11.9543 9.07902 12.0971 9.21967C12.2399 9.36032 12.3202 9.55109 12.3202 9.75C12.3202 9.94891 12.2399 10.1397 12.0971 10.2803C11.9543 10.421 11.7606 10.5 11.5586 10.5H6.98916C6.78718 10.5 6.59347 10.421 6.45064 10.2803C6.30782 10.1397 6.22758 9.94891 6.22758 9.75ZM3.1813 5.25C3.1813 5.05109 3.26153 4.86032 3.40436 4.71967C3.54718 4.57902 3.74089 4.5 3.94287 4.5H14.6049C14.8069 4.5 15.0006 4.57902 15.1434 4.71967C15.2862 4.86032 15.3664 5.05109 15.3664 5.25C15.3664 5.44891 15.2862 5.63968 15.1434 5.78033C15.0006 5.92098 14.8069 6 14.6049 6H3.94287C3.74089 6 3.54718 5.92098 3.40436 5.78033C3.26153 5.63968 3.1813 5.44891 3.1813 5.25ZM0.13501 0.75C0.13501 0.551088 0.215247 0.360322 0.358069 0.21967C0.500892 0.0790178 0.6946 0 0.896582 0H17.6512C17.8531 0 18.0469 0.0790178 18.1897 0.21967C18.3325 0.360322 18.4127 0.551088 18.4127 0.75C18.4127 0.948912 18.3325 1.13968 18.1897 1.28033C18.0469 1.42098 17.8531 1.5 17.6512 1.5H0.896582C0.6946 1.5 0.500892 1.42098 0.358069 1.28033C0.215247 1.13968 0.13501 0.948912 0.13501 0.75Z" fill="currentValue"/>
</svg>
