<svg width="24" height="23" color="currentColor" viewBox="0 0 19 22" fill="none" xmlns="http://www.w3.org/2000/svg">
  <path
    d="M15.391 5.11989C15.454 5.18982 15.5039 5.27289 15.5379 5.36435C15.572 5.45581 15.5895 5.55386 15.5895 5.65288C15.5895 5.7519 15.572 5.84995 15.5379 5.9414C15.5039 6.03286 15.454 6.11594 15.391 6.18586L13.0269 8.82069C12.9039 8.95767 12.7382 9.03648 12.5643 9.04068C12.3904 9.04489 12.2217 8.97418 12.0935 8.84327L11.0803 7.81193C10.9548 7.6755 10.8818 7.49005 10.8767 7.29476C10.8717 7.09947 10.9349 6.90964 11.0532 6.76537C11.1714 6.62111 11.3353 6.53372 11.5103 6.52167C11.6852 6.50961 11.8575 6.57384 11.9908 6.70078L12.5271 7.24582L14.4346 5.11989C14.4973 5.04979 14.5719 4.99416 14.6539 4.95621C14.736 4.91826 14.824 4.89873 14.9128 4.89873C15.0017 4.89873 15.0896 4.91826 15.1717 4.95621C15.2538 4.99416 15.3283 5.04979 15.391 5.11989ZM15.391 13.7139C15.5179 13.5728 15.5892 13.3812 15.5893 13.1815C15.5895 12.9817 15.5184 12.7901 15.3917 12.6487C15.2651 12.5073 15.0932 12.4279 14.914 12.4277C14.7347 12.4276 14.5628 12.5068 14.4359 12.6479L12.5271 14.7739L11.9908 14.2288C11.8575 14.1019 11.6852 14.0377 11.5103 14.0497C11.3353 14.0618 11.1714 14.1492 11.0532 14.2934C10.9349 14.4377 10.8717 14.6275 10.8767 14.8228C10.8818 15.0181 10.9548 15.2036 11.0803 15.34L12.0935 16.3713C12.2217 16.5018 12.39 16.5722 12.5636 16.568C12.7371 16.5638 12.9026 16.4853 13.0256 16.3487L15.3897 13.7139H15.391ZM4.10549 14.3101C4.10549 14.1105 4.17665 13.919 4.30332 13.7778C4.43 13.6367 4.6018 13.5573 4.78094 13.5573H8.15824C8.33738 13.5573 8.50919 13.6367 8.63586 13.7778C8.76253 13.919 8.8337 14.1105 8.8337 14.3101C8.8337 14.5098 8.76253 14.7013 8.63586 14.8425C8.50919 14.9836 8.33738 15.0629 8.15824 15.0629H4.78094C4.6018 15.0629 4.43 14.9836 4.30332 14.8425C4.17665 14.7013 4.10549 14.5098 4.10549 14.3101ZM4.78094 6.02928C4.6018 6.02928 4.43 6.10859 4.30332 6.24977C4.17665 6.39095 4.10549 6.58243 4.10549 6.78209C4.10549 6.98174 4.17665 7.17322 4.30332 7.3144C4.43 7.45558 4.6018 7.53489 4.78094 7.53489H8.15824C8.33738 7.53489 8.50919 7.45558 8.63586 7.3144C8.76253 7.17322 8.8337 6.98174 8.8337 6.78209C8.8337 6.58243 8.76253 6.39095 8.63586 6.24977C8.50919 6.10859 8.33738 6.02928 8.15824 6.02928H4.78094ZM0.0527344 2.26525C0.0527344 1.66628 0.266227 1.09185 0.646246 0.668311C1.02627 0.244776 1.54168 0.00683594 2.07911 0.00683594H16.9392C17.4766 0.00683594 17.992 0.244776 18.3721 0.668311C18.7521 1.09185 18.9656 1.66628 18.9656 2.26525V18.827C18.9656 19.4259 18.7521 20.0004 18.3721 20.4239C17.992 20.8475 17.4766 21.0854 16.9392 21.0854H2.07911C1.54168 21.0854 1.02627 20.8475 0.646246 20.4239C0.266227 20.0004 0.0527344 19.4259 0.0527344 18.827V2.26525ZM2.07911 1.51245C1.89997 1.51245 1.72816 1.59176 1.60149 1.73294C1.47482 1.87412 1.40365 2.0656 1.40365 2.26525V18.827C1.40365 19.0266 1.47482 19.2181 1.60149 19.3593C1.72816 19.5005 1.89997 19.5798 2.07911 19.5798H16.9392C17.1183 19.5798 17.2901 19.5005 17.4168 19.3593C17.5435 19.2181 17.6147 19.0266 17.6147 18.827V2.26525C17.6147 2.0656 17.5435 1.87412 17.4168 1.73294C17.2901 1.59176 17.1183 1.51245 16.9392 1.51245H2.07911Z"
    fill="currentColor"/>
</svg>
