<svg width="25" height="23" viewBox="0 0 25 23" fill="none" xmlns="http://www.w3.org/2000/svg">
<path d="M21.3867 3.03977H16.7285V1.16797C16.7285 1.08457 16.6925 1.00459 16.6284 0.945617C16.5643 0.886645 16.4774 0.853516 16.3867 0.853516H8.61328C8.52265 0.853563 8.43574 0.886708 8.37165 0.945669C8.30756 1.00463 8.27154 1.08459 8.27148 1.16797V3.03977H3.61328C3.52263 3.03977 3.43569 3.0729 3.37159 3.13187C3.3075 3.19085 3.27148 3.27083 3.27148 3.35423V5.62566C3.27154 5.70904 3.30756 5.78899 3.37165 5.84796C3.43574 5.90692 3.52265 5.94006 3.61328 5.94011H4.43789L5.37148 21.8489C5.37623 21.9293 5.41427 22.0049 5.47777 22.0603C5.54127 22.1156 5.62541 22.1465 5.71289 22.1465H19.2871C19.3746 22.1465 19.4587 22.1157 19.5222 22.0603C19.5857 22.0049 19.6237 21.9293 19.6283 21.8489L20.5621 5.94011H21.3867C21.4774 5.94011 21.5643 5.90698 21.6284 5.84801C21.6925 5.78904 21.7285 5.70905 21.7285 5.62566V3.35423C21.7285 3.31293 21.7197 3.27202 21.7026 3.23386C21.6854 3.1957 21.6602 3.16103 21.6285 3.13182C21.5967 3.10262 21.559 3.07946 21.5175 3.06366C21.4761 3.04787 21.4316 3.03975 21.3867 3.03977V3.03977ZM8.95508 1.48242H16.0449V3.03977H8.95508V1.48242ZM18.9633 21.5176H6.03672L5.12246 5.94011H19.8777L18.9633 21.5176ZM21.0449 5.3112H3.95508V3.66868H8.60664H8.61328C8.61328 3.66868 8.61758 3.66868 8.61992 3.66868H16.3803H16.3867C16.3867 3.66868 16.3912 3.66868 16.3934 3.66868H21.0449V5.3112Z" fill="black"/>
<path d="M9.11475 17.3505C9.20538 17.3504 9.29229 17.3173 9.35638 17.2583C9.42046 17.1994 9.45649 17.1194 9.45654 17.036V9.46362C9.45654 9.38022 9.42053 9.30024 9.35643 9.24127C9.29233 9.1823 9.2054 9.14917 9.11475 9.14917C9.0241 9.14917 8.93716 9.1823 8.87306 9.24127C8.80896 9.30024 8.77295 9.38022 8.77295 9.46362V17.036C8.77295 17.1194 8.80896 17.1994 8.87306 17.2584C8.93716 17.3173 9.0241 17.3505 9.11475 17.3505V17.3505Z" fill="black"/>
<path d="M12.5 17.3505C12.5906 17.3504 12.6775 17.3173 12.7416 17.2583C12.8057 17.1994 12.8417 17.1194 12.8418 17.036V9.46362C12.8418 9.38022 12.8058 9.30024 12.7417 9.24127C12.6776 9.1823 12.5907 9.14917 12.5 9.14917C12.4093 9.14917 12.3224 9.1823 12.2583 9.24127C12.1942 9.30024 12.1582 9.38022 12.1582 9.46362V17.036C12.1583 17.1194 12.1943 17.1994 12.2584 17.2583C12.3225 17.3173 12.4094 17.3504 12.5 17.3505V17.3505Z" fill="black"/>
<path d="M15.8853 17.3505C15.9759 17.3505 16.0628 17.3173 16.1269 17.2584C16.191 17.1994 16.2271 17.1194 16.2271 17.036V9.46362C16.2271 9.38022 16.191 9.30024 16.1269 9.24127C16.0628 9.1823 15.9759 9.14917 15.8853 9.14917C15.7946 9.14917 15.7077 9.1823 15.6436 9.24127C15.5795 9.30024 15.5435 9.38022 15.5435 9.46362V17.036C15.5435 17.1194 15.5795 17.1994 15.6436 17.2584C15.7077 17.3173 15.7946 17.3505 15.8853 17.3505V17.3505Z" fill="black"/>
</svg>
