<svg width="24" height="23" color="currentColor" viewBox="0 0 24 23" fill="none" xmlns="http://www.w3.org/2000/svg">
<path d="M11.9639 0.891027L11.9644 0.891502L22.6251 11.5098C22.6252 11.5098 22.6252 11.5099 22.6252 11.5099C23.0763 11.9596 23.0762 12.6874 22.627 13.1369L22.6262 13.1377C22.4108 13.3542 22.1171 13.4753 21.8082 13.4753H20.6849H20.1849V13.9753V21.5522C20.1849 21.7311 20.0402 21.8777 19.8567 21.8777H13.4747V16.599V16.099H12.9747H10.0759H9.57589V16.599V21.8777H3.60796C3.42445 21.8777 3.27973 21.7311 3.27973 21.5522V13.9753V13.4753H2.77973H1.65645C1.01742 13.4753 0.5 12.9573 0.5 12.3243C0.5 12.0198 0.622274 11.7264 0.839431 11.5099C0.839474 11.5099 0.839516 11.5098 0.839559 11.5098L11.5003 0.891502L11.5007 0.891029C11.531 0.860821 11.567 0.836771 11.6067 0.820334C11.6465 0.803893 11.6892 0.79541 11.7323 0.79541C11.7755 0.79541 11.8182 0.803893 11.8579 0.820333C11.8977 0.836772 11.9337 0.860821 11.9639 0.891027Z" fill="white" stroke="currentColor"/>
</svg>
