<svg width="24" height="23" viewBox="0 0 28 28" color="currentColor" fill="none" xmlns="http://www.w3.org/2000/svg">
<path fill-rule="evenodd" clip-rule="evenodd" d="M5 12L6 10L5 7.5L7 5.5L9.5 7L11.5 6L12 3.5H15.5L16 6L18 7L20.5 5.5L23 7.5L21.5 10L22 12L25 13V15V16L22 16.5L21.5 18.1875L23 21L21 23L18 22L16 22.5L15.5 25H12L11.5 23L9.5 22L7.1875 23L5 21L6 18.5L5 16.5L2 15.5V12.5L5 12ZM13.845 19.54C16.8025 19.54 19.2 17.1805 19.2 14.27C19.2 11.3595 16.8025 9 13.845 9C10.8875 9 8.48999 11.3595 8.48999 14.27C8.48999 17.1805 10.8875 19.54 13.845 19.54Z" fill="white"/>
<path d="M13.8485 8.98779C10.8646 8.98779 8.49268 11.3215 8.49268 14.2574C8.49268 17.1934 10.8646 19.5271 13.8485 19.5271C16.8325 19.5271 19.2044 17.1934 19.2044 14.2574C19.2044 11.3215 16.8325 8.98779 13.8485 8.98779ZM13.8485 18.0215C11.7062 18.0215 10.0229 16.3653 10.0229 14.2574C10.0229 12.1496 11.7062 10.4934 13.8485 10.4934C15.9909 10.4934 17.6741 12.1496 17.6741 14.2574C17.6741 16.3653 15.9909 18.0215 13.8485 18.0215Z" fill="currentColor"/>
<path d="M25.096 11.7733L22.9537 11.0958L22.4946 9.96654L23.5658 8.00925C23.7953 7.55756 23.7188 6.95532 23.3362 6.57892L21.4999 4.77218C21.1174 4.39578 20.5053 4.3205 20.0462 4.54634L18.0569 5.60027L16.9092 5.14859L16.2206 3.04073C16.0676 2.58905 15.6085 2.21265 15.0729 2.21265H12.4715C11.9359 2.21265 11.4768 2.58905 11.4003 3.11601L10.7117 5.22387C10.2527 5.29915 9.87009 5.44971 9.48753 5.67555L7.49822 4.62162C7.03914 4.39578 6.42705 4.47106 6.04449 4.84747L4.2082 6.6542C3.82564 7.0306 3.74912 7.63285 3.97866 8.08453L4.97332 9.96654C4.82029 10.3429 4.66727 10.7946 4.51425 11.171L2.37191 11.8486C1.91283 11.9991 1.53027 12.4508 1.53027 12.9778V15.5373C1.53027 16.0643 1.91283 16.5159 2.44842 16.6665L4.59076 17.344L5.04983 18.4732L3.97866 20.4305C3.74912 20.8822 3.82564 21.4845 4.2082 21.8609L6.04449 23.6676C6.42705 24.044 7.03914 24.1193 7.49822 23.8934L9.48753 22.8395L10.6352 23.2912L11.3238 25.4743C11.4768 25.926 11.9359 26.3024 12.4715 26.3024H15.0729C15.6085 26.3024 16.0676 25.926 16.2206 25.4743L16.9092 23.2912L18.0569 22.8395L20.0462 23.8934C20.5053 24.1193 21.1174 24.044 21.4999 23.6676L23.3362 21.8609C23.7188 21.4845 23.7953 20.8822 23.5658 20.4305L22.4946 18.4732L22.9537 17.344L25.1725 16.6665C25.6316 16.5159 26.0141 16.0643 26.0141 15.5373V12.9778C26.0141 12.4508 25.6316 11.9238 25.096 11.7733ZM24.4839 15.3115L21.7295 16.1395L21.653 16.5159L20.9643 18.0968L20.7348 18.4732L22.112 20.9575L20.5818 22.4631L18.0569 21.1081L17.6743 21.3339C17.1387 21.635 16.6032 21.8609 16.0676 22.0114L15.685 22.0867L14.8434 24.7968H12.701L11.8594 22.0867L11.4768 22.0114L9.87009 21.3339L9.48753 21.1081L6.96263 22.4631L5.43239 20.9575L6.80961 18.4732L6.58007 18.0968C6.27402 17.5699 6.04449 17.0429 5.89146 16.5159L5.81495 16.1395L3.06052 15.3115V13.2036L5.66193 12.4508L5.81495 12.0744C5.96798 11.4722 6.19751 10.9452 6.50356 10.4182L6.7331 10.0418L5.43239 7.55757L6.96263 6.05195L9.41102 7.407L9.79358 7.18116C10.3292 6.88004 10.8647 6.6542 11.4768 6.50364L11.8594 6.35308L12.701 3.71826H14.8434L15.685 6.35308L16.0676 6.50364C16.6032 6.6542 17.1387 6.88004 17.6743 7.18116L18.0569 7.407L20.5818 6.05195L22.112 7.55757L20.7348 10.0418L20.9643 10.4182C21.2704 10.9452 21.4999 11.4722 21.653 11.9991L21.7295 12.3755L24.4839 13.2036V15.3115Z" fill="currentColor"/>
</svg>
